<?xml version="1.0" encoding="utf-8"?>
<!-- Generator: Adobe Illustrator 20.0.0, SVG Export Plug-In . SVG Version: 6.00 Build 0)  -->
<svg version="1.1" id="Calque_1" xmlns="http://www.w3.org/2000/svg" xmlns:xlink="http://www.w3.org/1999/xlink" x="0px" y="0px"
	 viewBox="0 0 2099 1480" style="enable-background:new 0 0 2099 1480;" xml:space="preserve">
<style type="text/css">
	.st0{display:none;fill:#009598;}
	.st1{fill:#006F4E;}
	.st2{fill:#ED1C24;}
	.st3{fill:#009598;}
</style>
<g id="Calque-1" transform="matrix(0.450728,0,0,0.450728,0,0)">
	<path class="st0" d="M-396.3,1637.3h-244.3V905.1h-253.7V698.3h751.6v206.8h-253.7L-396.3,1637.3L-396.3,1637.3z"/>
	<path class="st0" d="M134.1,1173.9c-23.1,0-43.6,4-61.6,11.9s-33.1,18.4-45.4,31.3c-12.3,12.6-22,27.7-28.5,45.4
		c-6.5,17.7-10.1,36-10.1,56.2c0,40.7,12.6,74.6,37.8,102s61.3,41.1,107.7,41.1s82.5-13.7,107.7-41.1c25.2-27.4,37.8-61.3,37.8-102
		c0-20.2-3.2-38.6-10.1-56.2c-6.8-17.3-16.2-32.4-28.5-45.4c-12.6-13-27.7-23.4-45.4-31.3S157.1,1173.9,134.1,1173.9 M134.1,977.2
		c51.5,0,100.5,7.6,147,22.3c46.5,14.8,87.2,36.8,122.5,65.9c35.3,29.2,63.4,64.9,83.9,107c20.5,42.5,31,90.8,31,145.9
		c0,54-10.4,102-31,144.5c-20.9,42.2-49,78.2-83.9,107c-35.3,29.2-76,51.2-122.5,65.9c-46.5,15.1-95.5,22.7-147,22.7
		s-100.2-7.6-146.3-22.7c-46.1-14.8-86.8-36.8-122.5-65.9s-64.1-64.5-84.7-106.6c-20.9-41.8-31.3-90.1-31.3-144.8
		c0-54.8,10.4-103.4,31.3-145.9c20.5-42.2,48.6-77.8,83.9-107c35.3-29.2,76-51.2,122.5-65.9C33.6,984.8,82.6,977.2,134.1,977.2"/>
	<path class="st0" d="M843.9,998.4v341.2c0,19.8,1.4,38.6,4.3,55.5c2.9,16.9,8.6,31.7,16.9,44.3c8.3,12.6,19.8,22,34.9,28.5
		c15.1,6.5,34.2,10.1,57.3,10.1s42.2-3.6,57.3-10.1c14.8-6.5,26.7-16.2,34.9-28.5c8.3-12.6,14.1-27,16.9-44.3
		c2.9-17.3,4.3-35.3,4.3-55.5V998.4h226.6v384.8c0,52.2-8.6,95.8-26.3,131.5c-17.3,35.3-41.4,63.4-72.4,84.7
		c-30.6,20.9-66.7,36-107.7,45.4c-41.1,9-85.8,13.7-133.7,13.7c-48.3,0-93-4.7-134.4-13.7c-41.4-9.4-77.5-24.5-107.7-45.4
		c-30.3-21.3-54-49.4-71.7-84.7c-17.3-35.3-25.9-78.9-25.9-131.5V998.4H843.9z"/>
	<path class="st0" d="M1689.5,1637.3h-226.6v-452.2h-73.5V998.4h73.5V806.8h226.6v191.7h128.3v186.6h-128.3V1637.3z"/>
	<path class="st0" d="M2335.5,1225.1c-5.8-30.6-20.9-55.1-45.4-73.5c-24.5-18.4-52.2-27.4-82.9-27.4c-33.1,0-62.3,8.3-87.2,25.6
		c-24.9,17.3-40.7,42.2-47.2,75.3H2335.5z M2545.9,1355.9h-477c0,46.5,11.9,81.8,35.3,105.9c23.8,24.1,59.1,36,106.3,36
		c24.1,0,45-4.3,63.1-13.3c18-8.6,33.1-23.8,45.4-45.4h218c-9,37.5-24.1,69.9-45.4,97.6c-21.3,27.7-46.5,50.4-76,68.5
		c-29.5,17.7-61.6,31-96.6,39.6c-34.9,8.6-70.6,13.3-107,13.3c-53,0-102.3-7.6-147.7-22.7c-45.4-14.8-84.3-36.8-117.1-65.2
		c-32.8-28.5-58.4-64.1-77.1-106.6s-28.1-90.8-28.1-145.6c0-53,8.6-100.9,26.3-143.4c17.3-42.2,41.8-77.8,72.8-107
		c31-29.2,68.1-51.5,111.3-67.4c43.2-15.9,90.8-23.8,143-23.8c55.5,0,105.2,8.3,148.1,24.9c43.2,16.6,79.6,40.4,109.5,71
		s52.6,67.7,68.5,111.3c15.9,43.6,23.8,92.6,23.8,147.4v24.9H2545.9z"/>
	<path class="st0" d="M3237,998.4v341.2c0,19.8,1.4,38.6,4.3,55.5s8.6,31.7,16.9,44.3c8.3,12.6,19.8,22,34.9,28.5
		c14.8,6.5,33.9,10.1,57.3,10.1c23.1,0,42.2-3.6,57.3-10.1c14.8-6.5,26.7-16.2,34.9-28.5c8.3-12.6,14.1-27,16.9-44.3
		c2.9-16.9,4.3-35.3,4.3-55.5V998.4h226.6v384.8c0,52.2-8.6,95.8-26.3,131.5c-17.3,35.3-41.4,63.4-72.4,84.7
		c-30.6,20.9-66.7,36-107.7,45.4c-41.1,9-85.8,13.7-133.7,13.7c-48.3,0-93-4.7-134.4-13.7c-41.4-9.4-77.5-24.5-107.7-45.4
		c-30.3-21.3-54-49.4-71.7-84.7c-17.3-35.3-25.9-78.9-25.9-131.5V998.4H3237z"/>
	<path class="st0" d="M4061.3,1080.6h2.5c26.7-38.9,55.8-65.9,88.3-81.1s71-22.3,115.7-22.3c43.2,0,80,6.5,110.3,19.5
		c30.3,12.6,54.8,31,73.9,54c19.1,23.1,33.1,51.2,42.5,83.9c9,32.8,13.7,68.8,13.7,107.7v394.9h-226.6V1326v-51.2
		c0-19.8-2.9-38.6-8.6-56.2c-5.8-17.3-15.9-31.7-29.9-43.6c-14.1-11.5-35.3-17.3-63.4-17.3c-23.1,0-42.5,4-57.3,11.9
		c-15.1,7.9-27,18.7-36,32.4c-9,13.7-15.5,29.5-19.5,47.2c-3.6,17.7-5.8,36.8-5.8,56.6v331.1h-226.6V998.1H4061v82.5H4061.3z"/>
	<path class="st0" d="M5103.3,1225.1c-5.8-30.6-20.9-55.1-45.4-73.5c-24.5-18.4-52.2-27.4-82.9-27.4c-33.1,0-62.3,8.3-87.2,25.6
		c-24.9,17.3-40.7,42.2-47.2,75.3H5103.3z M5313.7,1355.9h-477c0,46.5,11.9,81.8,35.7,105.9c23.8,24.1,59.1,36,106.3,36
		c24.1,0,45-4.3,63.1-13.3c17.7-8.6,32.8-23.8,45.4-45.4h218c-9.4,37.5-24.5,69.9-45.4,97.6c-20.9,27.7-46.5,50.4-76,68.5
		c-29.5,17.7-61.6,31-96.6,39.6c-34.9,8.6-70.6,13.3-107,13.3c-53,0-102.3-7.6-147.4-22.7c-45.4-14.8-84.3-36.8-117.1-65.2
		c-32.8-28.5-58.4-64.1-77.1-106.6s-28.1-90.8-28.1-145.6c0-53,8.6-100.9,26.3-143.4c17.3-42.2,41.8-77.8,72.8-107
		c31-29.2,68.1-51.5,111.3-67.4s90.8-23.8,143.4-23.8c55.5,0,104.8,8.3,148.1,24.9c43.2,16.6,79.6,40.4,109.5,71
		c29.9,30.6,52.6,67.7,68.5,111.3c15.9,43.6,23.8,92.6,23.8,147.4v24.9H5313.7z"/>
	<path class="st0" d="M6139.5,1173.9c-23.4,0-44,4-61.6,11.9c-18,7.9-33.1,18.4-45.4,31.3c-12.6,12.6-22,27.7-28.5,45.4
		c-6.5,17.7-10.1,36-10.1,56.2c0,40.7,12.6,74.6,37.8,102c25.2,27.4,61.3,41.1,107.7,41.1s82.5-13.7,107.7-41.1
		c25.2-27.4,37.8-61.3,37.8-102c0-20.2-3.2-38.6-10.1-56.2c-6.5-17.3-16.2-32.4-28.5-45.4c-12.6-13-27.7-23.4-45.4-31.3
		C6183.1,1177.9,6162.6,1173.9,6139.5,1173.9 M5774.6,698.3h226.6v362.5c24.1-28.5,53.7-49.4,89-63.1
		c35.3-13.7,71.7-20.5,108.8-20.5c47.6,0,90.8,9,130.1,27.4c39.3,18.4,73.1,42.9,100.9,74.2c27.7,31.3,49.7,67.4,65.2,108.1
		c15.9,41.1,23.8,84.7,23.8,130.1c0,46.5-7.9,90.1-23.8,131.1c-15.9,41.1-37.8,77.1-65.9,108.5c-28.1,31-62.3,55.8-102,74.2
		c-40,18.4-83.6,27.4-130.8,27.4c-37.5,0-73.5-7.6-108.8-22.7c-35.3-14.8-63.4-38.2-83.9-69.5h-2.5v71h-226.6V698.3z"/>
	<path class="st0" d="M8646.1,1461.8c23.1,0,44-4,61.6-11.9s32.8-18.4,45.4-31.3c12.6-12.6,22-27.7,28.8-45.4
		c6.5-17.7,10.1-36,10.1-56.2c0-40.7-12.6-74.9-37.8-102c-25.2-27.4-61.3-41.1-107.7-41.1c-46.5,0-82.5,13.7-107.7,41.1
		c-25.2,27.4-37.8,61.3-37.8,102c0,19.8,3.2,38.6,10.1,56.2c6.8,17.3,16.2,32.4,28.8,45.4c12.3,13,27.7,23.1,45.4,31.3
		C8602.2,1457.8,8622.7,1461.8,8646.1,1461.8 M9010.8,1937.4h-226.6v-362.5c-24.1,28.1-53.7,49.4-89,62.7
		c-35.3,13.7-71.7,20.5-108.8,20.5c-47.2,0-90.8-9-130.1-27.4c-39.3-18.4-73.1-42.9-100.9-74.2c-27.7-31-49.7-67.4-65.2-108.5
		c-15.9-41.1-23.8-84.3-23.8-130.1c0-46.5,7.9-90.4,23.8-131.5c15.9-41.1,37.8-77.1,65.9-108.5c28.5-31,62.3-55.8,102.3-74.2
		c40-18.4,83.2-27.4,130.8-27.4c37.5,0,73.5,7.6,109.2,22.7c35.3,14.8,63.4,38.2,83.9,69.5h2.5v-71h226.6v939.7H9010.8z"/>
	<path class="st0" d="M-214.7,2657.3c17.7-7.9,33.1-18.4,45.4-31c12.3-13,22-28.1,28.5-45.4s10.1-36,10.1-56.2
		c0-40.7-12.6-74.6-37.8-102c-25.6-27.4-61.3-41.1-107.7-41.1s-82.5,13.7-107.7,41.1c-25.2,27.4-38.2,61.3-38.2,102
		c0,19.8,3.2,38.6,10.1,56.2c6.5,17.3,16.2,32.4,28.5,45.4c12.6,13,27.7,23.1,45.4,31c17.7,7.9,38.2,11.9,61.6,11.9
		C-253.2,2668.8-232.7,2664.8-214.7,2657.3 M-641.3,2205.8h226.6v71h2.5c20.9-31.7,48.6-54.8,83.9-69.9
		c35.3-15.1,71.7-22.3,108.8-22.3c47.2,0,90.8,9.4,130.8,27.4c40,18,73.9,42.9,102.3,73.9c28.1,31,50.1,67.4,65.9,108.5
		c15.9,41.1,23.8,84.7,23.8,131.1c0,45.8-7.9,89-23.8,130.1c-15.9,41.1-37.5,77.1-65.2,108.5c-27.7,31.3-61.3,55.8-100.9,74.2
		c-39.3,18-82.9,27.4-130.1,27.4c-37.5,0-73.5-6.8-108.8-20.5c-35.3-13.7-64.9-34.6-89-63.1v362.5h-226.6v-938.6H-641.3z"/>
	<path class="st0" d="M6965,1173.9c-23.4,0-44,4-61.6,11.9c-18,7.9-32.8,18.4-45.4,31.3c-12.6,12.6-22,27.7-28.8,45.4
		c-6.5,17.7-10.1,36-10.1,56.2c0,40.7,12.6,74.6,38.2,102c25.2,27.4,61.3,41.1,107.7,41.1c46.5,0,82.5-13.7,107.7-41.1
		c25.2-27.4,38.2-61.3,38.2-102c0-20.2-3.2-38.6-10.1-56.2c-6.8-17.3-16.2-32.4-28.8-45.4s-27.4-23.4-45.4-31.3
		C7008.9,1177.9,6988.4,1173.9,6965,1173.9 M7330,1637.3h-226.6v-71h-2.5c-19.8,31.7-47.6,54.8-83.2,69.5
		c-35.7,15.1-72.4,22.7-109.5,22.7c-47.2,0-90.8-9.4-130.1-27.4c-39.3-18.4-73.5-42.9-102-74.2c-28.8-31-50.8-67.4-66.7-109.2
		c-15.9-41.4-23.8-85-23.8-130.8s7.9-89,23.8-130.1c15.5-41.1,37.5-77.1,65.2-108.1c27.7-31.3,61.3-55.8,100.9-74.2
		c39.3-18.4,82.9-27.4,130.1-27.4c37.5,0,73.5,6.8,108.8,20.5c35.3,13.7,64.9,34.6,89,63.1v-62.3H7330V1637.3z"/>
	<path class="st0" d="M7707.2,1080.6h2.5c26.7-38.9,55.8-65.9,88.3-81.1c32.4-15.1,71-22.3,115.7-22.3c43.2,0,80,6.5,110.3,19.5
		c30.3,12.6,55.1,31,74.2,54c19.1,23.1,33.1,51.2,42.5,83.9c9,32.8,13.7,68.8,13.7,107.7v394.9h-226.6V1326v-51.2
		c0-19.8-2.9-38.6-8.6-56.2c-5.8-17.3-15.9-31.7-29.9-43.6c-14.1-11.5-35.3-17.3-63.4-17.3c-23.1,0-42.2,4-57.3,11.9
		s-27,18.7-36,32.4c-9,13.7-15.5,29.5-19.1,47.2c-3.6,17.7-5.8,36.8-5.8,56.6v331.1h-226.6V998.1h226.6v82.5H7707.2z"/>
	<path class="st0" d="M9375.7,998.4v341.2c0,19.8,1.4,38.6,4.3,55.5c2.9,16.9,8.6,31.7,16.9,44.3c8.3,12.6,20.2,22,35,28.5
		c15.1,6.5,33.9,10.1,57.3,10.1c23.1,0,42.2-3.6,57.3-10.1c14.8-6.5,26.7-16.2,34.9-28.5s14.1-27,16.9-44.3
		c2.9-16.9,4.3-35.3,4.3-55.5V998.4h226.6v384.8c0,52.2-8.6,95.8-26.3,131.5c-17.3,35.3-41.4,63.4-72.4,84.7
		c-30.6,20.9-66.7,36-107.7,45.4c-41.1,9-85.8,13.7-134,13.7c-48.3,0-93-4.7-134.4-13.7c-41.4-9.4-77.5-24.5-107.7-45.4
		c-30.3-21.3-54-49.4-71.7-84.7c-17.3-35.3-26.3-78.9-26.3-131.5V998.4H9375.7z"/>
	<path class="st0" d="M10419.2,1225.1c-5.8-30.6-20.9-55.1-45.4-73.5c-24.5-18.4-52.2-27.4-82.9-27.4c-33.1,0-62.3,8.3-87.2,25.6
		c-24.9,17.3-40.7,42.2-47.2,75.3H10419.2z M10629.6,1355.9h-477c0,46.5,11.9,81.8,35.3,105.9c23.8,24.1,59.1,36,106.3,36
		c24.1,0,45-4.3,63.1-13.3c17.7-8.6,32.8-23.8,45.4-45.4h218c-9.4,37.5-24.5,69.9-45.4,97.6c-21.3,27.7-46.5,50.4-76,68.5
		c-29.5,17.7-61.6,31-96.6,39.6c-34.9,8.6-70.6,13.3-107,13.3c-53,0-102.3-7.6-147.4-22.7c-45.4-14.8-84.3-36.8-117.1-65.2
		c-32.8-28.5-58.4-64.1-77.1-106.6c-18.7-42.5-28.1-90.8-28.1-145.6c0-53,8.6-100.9,26.3-143.4c17.3-42.2,41.8-77.8,72.8-107
		c31-29.2,68.1-51.5,111.3-67.4c43.2-15.9,90.8-23.8,143-23.8c55.5,0,105.2,8.3,148.1,24.9c43.2,16.6,79.6,40.4,109.5,71
		s52.6,67.7,68.5,111.3c15.9,43.6,23.8,92.6,23.8,147.4v24.9H10629.6z"/>
	<path class="st0" d="M-276.3,2381.3c-23.4,0-44,4-61.6,11.9c-18,7.9-33.1,18.4-45.4,31c-12.6,13-22,28.1-28.8,45.4
		c-6.5,17.3-10.1,36-10.1,55.8c0,40.7,12.6,74.6,38.2,102c25.2,27.4,61.3,41.1,107.7,41.1s82.5-13.7,107.7-41.1
		c25.2-27.4,37.8-61.3,37.8-102c0-19.8-3.2-38.6-10.1-55.8c-6.8-17.3-16.2-32.4-28.8-45.4s-27.7-23.1-45.4-31
		C-232.7,2385.2-253.2,2381.3-276.3,2381.3 M-414.7,2277.9h2.5c20.9-31.7,49-55.1,83.9-70.6c35.3-15.1,71.7-23.1,108.8-23.1
		c47.2,0,90.8,9.4,130.8,28.1c40,18.7,73.9,43.6,102.3,74.6c28.1,31.3,50.1,67.4,65.9,109.2c15.9,41.4,23.8,85,23.8,130.8
		c0,46.5-7.9,90.1-23.8,130.8s-37.5,76.4-65.2,107.7c-27.7,31.3-61.6,55.5-100.9,73.5c-39.3,17.7-82.9,26.7-130.1,26.7
		c-37.5,0-73.5-6.8-108.8-19.8c-35.3-13.3-64.9-33.9-89-62.3v361h-226.6v-938.9h226.6v72.4H-414.7z"/>
	<path class="st0" d="M552.7,2381.3c-23.1,0-43.6,4-61.6,11.9c-18,7.9-32.8,18.4-45.4,31c-12.3,13-22,28.1-28.5,45.4
		c-6.8,17.3-10.1,36-10.1,55.8c0,40.7,12.6,74.6,37.8,102c25.2,27.4,61.3,41.1,107.7,41.1s82.5-13.7,107.7-41.1
		c25.2-27.4,37.8-61.3,37.8-102c0-19.8-3.2-38.6-10.1-55.8s-16.2-32.4-28.8-45.4c-12.3-13-27.7-23.1-45.4-31
		C596.7,2385.2,576.2,2381.3,552.7,2381.3 M552.7,2184.5c51.5,0,100.5,7.6,147,22.3c46.5,14.8,87.6,37.1,122.9,65.9
		c35.3,28.8,63.4,64.9,83.9,107c20.5,42.5,31,90.8,31,145.6c0,54-10.4,102-31,144.5c-20.9,42.5-49,78.2-83.9,107
		c-35.3,29.2-76,51.2-122.9,65.9c-46.5,14.8-95.5,22.3-147,22.3s-100.2-7.6-146.3-22.3c-46.1-14.8-86.8-37.1-122.5-65.9
		s-64.1-64.5-84.7-106.3c-20.9-41.8-31.3-90.1-31.3-145.2c0-54.8,10.4-103.4,31.3-145.6c20.5-42.2,48.6-78.2,83.9-107
		c35.3-29.2,76-51.2,122.5-65.9C452.2,2192.1,501.2,2184.5,552.7,2184.5"/>
	<path class="st0" d="M1262.5,2205.8V2547c0,19.8,1.4,38.6,4.3,55.5c2.9,16.9,8.6,31.7,16.9,44.3c8.3,12.6,19.8,22,34.9,28.8
		c15.1,6.5,34.2,10.1,57.3,10.1s42.2-3.2,57.3-10.1c15.1-6.5,26.7-16.2,34.9-28.8c8.3-12.6,14.1-27,16.9-44.3
		c2.9-16.9,4.3-35.7,4.3-55.5v-341.2h226.6v384.8c0,52.2-8.6,96.2-26.3,131.5c-17.3,35.3-41.4,63.4-72.4,84.7
		c-30.6,21.3-66.7,36.4-107.7,45.4c-41.1,9.4-85.8,13.7-133.7,13.7c-48.3,0-93-4.7-134.4-13.7c-41.4-9-77.5-24.1-107.7-45.4
		c-30.3-21.3-54-49.4-71.7-84.7c-17.3-35.3-25.9-78.9-25.9-131.5v-384.8H1262.5z"/>
	<path class="st0" d="M2086.9,2310.3h2.5c21.6-40,50.1-68.8,85.8-86.5c35.7-18,76-27,120.7-27h43.6v218c-15.9-9-31.3-14.8-46.8-17.3
		c-15.5-2.5-31.7-3.6-49-3.6c-31.7,0-57.6,5-77.8,14.8c-20.2,10.1-36.4,23.8-47.9,40.7s-19.8,37.5-24.5,60.9
		c-4.3,23.8-6.8,49-6.8,76.4v258h-226.6v-638.8h226.6v104.5H2086.9z"/>
	<path class="st0" d="M3165.3,2533l151.7-327.5h254l-333.6,638.8h-144.5l-335.1-638.8h254L3165.3,2533z"/>
	<path class="st0" d="M3964.4,2381.3c-23.1,0-43.6,4-61.6,11.9c-18,7.9-32.8,18.4-45.4,31c-12.2,13-22,28.1-28.5,45.4
		c-6.8,17.3-10.1,36-10.1,55.8c0,40.7,12.6,74.6,37.8,102c25.2,27.4,61.3,41.1,107.7,41.1c46.5,0,82.5-13.7,107.7-41.1
		c25.2-27.4,37.8-61.3,37.8-102c0-19.8-3.2-38.6-10.1-55.8c-6.8-17.3-16.2-32.4-28.8-45.4c-12.2-13-27.4-23.1-45.4-31
		C4008.4,2385.2,3987.8,2381.3,3964.4,2381.3 M3964.4,2184.5c51.5,0,100.5,7.6,147,22.3c46.5,14.8,87.6,37.1,122.9,65.9
		c35.3,28.8,63.4,64.9,83.9,107c20.5,42.5,31,90.8,31,145.6c0,54-10.4,102-31,144.5c-20.9,42.5-49,78.2-83.9,107
		c-35.3,29.2-76,51.2-122.9,65.9c-46.5,14.8-95.5,22.3-147,22.3s-100.2-7.6-146.3-22.3c-46.1-14.8-86.8-37.1-122.9-65.9
		c-35.7-28.8-63.8-64.5-84.7-106.3s-31-90.1-31-145.2c0-54.8,10.4-103.4,31-145.6c20.9-42.2,48.6-78.2,83.9-107
		c35.3-29.2,76.4-51.2,122.9-65.9C3864.2,2192.1,3912.9,2184.5,3964.4,2184.5"/>
	<path class="st0" d="M4674.2,2205.8V2547c0,19.8,1.4,38.6,4.3,55.5c2.9,16.9,8.6,31.7,16.9,44.3c8.3,12.6,20.2,22,34.9,28.8
		c15.1,6.5,33.9,10.1,57.3,10.1c23.1,0,42.2-3.2,57.3-10.1c14.8-6.5,26.7-16.2,34.9-28.8c8.3-12.6,14.1-27,16.9-44.3
		c2.9-16.9,4.3-35.7,4.3-55.5v-341.2h226.6v384.8c0,52.2-8.6,96.2-26.3,131.5c-17.3,35.3-41.4,63.4-72.4,84.7
		c-30.6,21.3-66.7,36.4-107.7,45.4c-41.1,9.4-85.8,13.7-133.7,13.7c-48.3,0-93-4.7-134.4-13.7c-41.4-9-77.5-24.1-107.7-45.4
		c-30.3-21.3-54-49.4-71.7-84.7c-17.3-35.3-25.9-78.9-25.9-131.5v-384.8H4674.2z"/>
	<path class="st0" d="M5694.2,2370.1c-17.3-9-37.5-16.6-59.8-22.3c-22.3-5.8-43.2-8.6-62.3-8.6c-6.8,0-14.1,0.7-22.3,2.5
		c-8.3,1.4-16.2,4-23.1,7.2c-7.2,3.2-13,7.6-18,13c-5,5.4-7.6,12.2-7.6,20.5c0,10.8,4,19.5,11.9,26.3c7.9,6.8,17.3,11.9,28.1,15.5
		c10.8,3.6,22,6.5,33.5,8.6c11.9,2.2,21.3,4,28.8,5.4c26.7,5,51.2,12.2,73.5,22c22.3,9.4,41.8,21.6,58.4,36.8
		c16.6,14.8,29.5,32.8,39.3,54c9.4,21.3,14.4,46.8,14.4,76.4c0,42.5-8.6,78.5-26.3,108.5c-17.3,29.9-40.4,54.4-69.2,73.5
		c-28.5,19.1-60.9,33.1-96.6,42.2c-35.7,9.4-72.1,13.7-109.5,13.7c-45.8,0-90.4-6.1-134-18.7c-43.6-12.2-84.7-30.6-123.9-54.8
		l82.1-158.2c11.5,8.3,24.9,16.2,40,23.8c14.8,7.6,30.3,14.4,46.1,20.5c15.9,6.1,31.7,11.2,47.9,14.8c16.2,3.6,31.3,5.8,45.4,5.8
		c7.6,0,15.5-0.7,23.8-2.5c8.3-1.4,15.9-4.7,23.1-8.6c7.2-4,13-9,17.3-15.1c4.7-5.8,6.8-13.3,6.8-22.3c0-12.3-4-22.3-12.3-29.2
		c-8.3-6.8-19.1-13-32.4-17.3c-13.3-4.7-28.5-8.6-45.4-11.9c-16.9-3.2-34.2-7.6-51.5-12.2c-17.3-5-34.6-11.2-51.5-18
		c-16.9-6.8-32.1-16.9-45.4-29.9c-13.3-13-24.1-28.8-32.4-47.9s-12.6-43.2-12.6-72.1c0-39.3,7.9-72.8,24.5-101.6
		c16.2-28.8,37.5-52.2,64.1-71c26.7-18.7,56.6-32.4,90.4-41.1c33.5-8.6,67.7-13,102.7-13c36.4,0,72.4,3.2,107.7,9.4
		c35.3,6.1,69.5,16.9,102.7,31.7L5694.2,2370.1z"/>
	<path class="st1" d="M3066.9,1528.4L2781.6,806l-372.2,798.1c-125.7,251.1-536.8,323.9-824.7,364.3l52.2-106.6l832.7-1572h649.3
		l465.1,953l203.9,452.2l420.1,907.2l-289.7-0.7l-225.9-0.7c-94.8,1.1-187.7-5.8-227-105.9l-80-193.8l-134-327.5L3066.9,1528.4z"/>
	<rect x="35.7" y="2861.9" class="st1" width="4286.8" height="368.6"/>
	<path class="st2" d="M4638.5,44.4L4638.5,44.4l-172.2,91.2l-609.6,320.7c0,0-209.7,113.5-344.1,141.6l1.1,2.2l-1.1-1.1
		c36.8,115.7,74.9,190.2,109.9,249.3c10.4,17.7,25.2,31,42.5,41.1c22.3,14.1,49,22,76,22.7c26.7,0.7,54-4.7,79.3-17.3l818.6-439.9
		L4638.5,44.4L4638.5,44.4z"/>
	<path class="st3" d="M3587.2,1245.6l-517,286.1c-647.1,353.1-1490.2,695.4-2219.8,634.1c-308.1-25.6-494-142-476.3-338.7
		c20.2-223.7,214.4-460.1,554.9-696.1c260.5-180.9,488.6-278.5,608.5-321c156.7-55.1,291.1-80.3,434.9-86.8c34.9,0,67,2.9,91.5,10.1
		c-0.7-4.3-1.4-7.9-2.2-12.2h0.4c-65.2-418.7-174.7-475.2-347-469.8C1231.9,266.7,625.2,600.7,303.4,986.9
		C130.8,1194.4,42.9,1443.1,38.6,1621c-6.1,271.7,102,641.7,433.4,830.5c368.2,209.7,896.1,196,1375.3,87.6
		c514.9-116.4,964.5-338.7,1406.6-562.8l536.8-278.5l849.6-487.5l3.2-529.6L3587.2,1245.6z"/>
</g>
</svg>
